<?xml version="1.0" standalone="no"?>
<!DOCTYPE svg PUBLIC "-//W3C//DTD SVG 1.1//EN" "http://www.w3.org/Graphics/SVG/1.1/DTD/svg11.dtd" >
<svg xmlns="http://www.w3.org/2000/svg">
<metadata>
This is a custom SVG webfont generated by Font Squirrel.
Copyright   : Copyright  2011 by Jan Tonellato All rights reserved
Designer    : Jan Tonellato
Foundry     : Jan Tonellato
Foundry URL : typographysynthviewcom
</metadata>
<defs>
<font id="NovecentoBold" horiz-adv-x="1492" >
<font-face units-per-em="2048" ascent="1741" descent="-307" />
<missing-glyph horiz-adv-x="487" />
<glyph unicode=" "  horiz-adv-x="487" />
<glyph unicode="&#x09;" horiz-adv-x="487" />
<glyph unicode="&#xa0;" horiz-adv-x="487" />
<glyph unicode="!" horiz-adv-x="638" d="M152 0v322h335v-322h-335zM152 442v992h335v-992h-335z" />
<glyph unicode="&#x22;" horiz-adv-x="1177" d="M152 989v445h317v-445h-317zM709 989v445h317v-445h-317z" />
<glyph unicode="#" horiz-adv-x="1812" d="M55 283l144 297h163l127 274h-163l141 295h162l133 285h323l-129 -285h275l133 285h324l-129 -285h192l-141 -295h-185l-122 -274h180l-142 -297h-174l-127 -283h-348l133 283h-260l-127 -283h-348l133 283h-168zM700 580h265l127 274h-269z" />
<glyph unicode="$" horiz-adv-x="1193" d="M41 406l321 86q27 -92 97.5 -155t169.5 -63q78 0 121 35t43 88q0 31 -14.5 55.5t-52.5 47t-66.5 36t-96 40t-102.5 42.5q-57 29 -91 47.5t-84 50.5t-79 61.5t-58.5 70.5t-43 92t-13.5 111q0 131 98.5 242.5t258.5 150.5v174h327v-182q131 -41 225.5 -137.5t133.5 -225.5 l-320 -88q-27 90 -91.5 137t-141.5 47q-68 0 -108 -29.5t-40 -74.5q0 -14 4 -26.5t14.5 -25t20.5 -22.5t29.5 -22.5t35 -20.5t43 -21.5t46 -21.5t54.5 -22.5t56 -24.5q84 -35 146.5 -71.5t127 -90t99.5 -125t35 -157.5q0 -156 -99.5 -270.5t-269.5 -155.5v-172h-327v176 q-152 39 -255.5 146.5t-152.5 267.5z" />
<glyph unicode="%" horiz-adv-x="1712" d="M23 1036q0 184 95 299t248.5 115t248 -114.5t94.5 -299.5q0 -182 -94.5 -296.5t-248 -114.5t-248.5 114.5t-95 296.5zM240 1036q0 -82 35.5 -136t91.5 -54q57 0 91 53t34 137q0 86 -34 139.5t-91.5 53.5t-92 -54.5t-34.5 -138.5zM272 0l955 1434h213l-953 -1434h-215z M1004 395q0 184 95 299t248.5 115t248 -114.5t94.5 -299.5q0 -182 -94.5 -296.5t-248 -114.5t-248.5 114.5t-95 296.5zM1221 395q0 -82 35.5 -136t91.5 -54q57 0 91 53t34 137q0 86 -34 139.5t-91.5 53.5t-92 -54.5t-34.5 -138.5z" />
<glyph unicode="&#x26;" horiz-adv-x="1382" d="M68 418q0 121 82.5 212t199.5 107v2q-94 10 -178 95.5t-84 212.5q0 188 136 301.5t356 113.5q195 0 327.5 -106.5t179.5 -292.5l-282 -78q-35 98 -84 146.5t-135 48.5q-78 0 -117 -45t-39 -99q0 -74 53.5 -122t151.5 -48h743v-264h-231v-131q0 -221 -139.5 -360.5 t-411.5 -139.5q-236 0 -382 124t-146 323zM397 430q0 -74 56.5 -121t146.5 -47q231 0 231 225v115h-215q-109 0 -164 -46t-55 -126z" />
<glyph unicode="'" horiz-adv-x="620" d="M152 989v445h317v-445h-317z" />
<glyph unicode="(" horiz-adv-x="784" d="M72 700q0 156 22.5 289t57 226.5t88 171t103.5 126t112.5 87t106.5 57t97 35.5l86 -324q-188 -55 -260.5 -223t-72.5 -444.5t72.5 -443.5t260.5 -224l-86 -322q-587 178 -587 989z" />
<glyph unicode=")" horiz-adv-x="784" d="M39 33l86 -322q588 178 588 989q0 156 -22.5 289t-57.5 226.5t-88 171t-103.5 126t-113 87t-106.5 57t-97 35.5l-86 -324q188 -55 261 -223t73 -444.5t-73 -443.5t-261 -224z" />
<glyph unicode="*" horiz-adv-x="972" d="M152 1096l61 198l174 -61l-4 201h205l-4 -201l174 61l63 -198l-182 -54l121 -157l-166 -125l-109 164l-106 -164l-166 123l121 159z" />
<glyph unicode="+" horiz-adv-x="1333" d="M231 588v276h291v307h287v-307h295v-276h-293v-305h-287v305h-293z" />
<glyph unicode="," horiz-adv-x="530" d="M70 -272q51 35 101 118.5t50 133.5l31 8l-31 4q-47 8 -81 47t-34 98q0 66 46.5 112t110 46t108.5 -50t45 -128q0 -94 -64.5 -202t-161.5 -187h-120z" />
<glyph unicode="-" horiz-adv-x="1173" d="M152 588v276h872v-276h-872z" />
<glyph unicode="." horiz-adv-x="530" d="M109 135.5q0 65.5 46 111.5t111.5 46t110.5 -46t45 -111.5t-46 -113t-110 -47.5q-66 0 -111.5 47.5t-45.5 113z" />
<glyph unicode="/" horiz-adv-x="1007" d="M6 0l672 1434h323l-647 -1434h-348z" />
<glyph unicode="0" horiz-adv-x="1372" d="M68 716.5q0 325.5 167.5 535.5t448.5 210q283 0 451 -210t168 -535.5t-168 -535.5t-451 -210q-281 0 -448.5 210t-167.5 535.5zM412 716.5q0 -196.5 67.5 -306t204.5 -109.5t207 110.5t70 305t-70 305.5t-207 111t-204.5 -110t-67.5 -306.5z" />
<glyph unicode="1" horiz-adv-x="917" d="M68 967l467 467h231v-1434h-332v670q0 51 2 120.5t2 110.5l2 39h-2l-12 -16q-14 -16 -40 -46t-50 -55l-57 -57z" />
<glyph unicode="2" horiz-adv-x="1191" d="M98 1067q47 170 182.5 282.5t333.5 112.5q223 0 362.5 -127t139.5 -323q0 -53 -11 -103.5t-23.5 -86.5t-46.5 -80t-51 -66.5t-67.5 -66.5t-65.5 -56t-75 -59q-51 -43 -111.5 -89.5t-91.5 -68.5l-32 -25l2 -2l8 2h22q14 0 35 2t48.5 3t57 1t67.5 1t75 1h254v-319h-997v270 q197 186 536 510q129 125 129 230q0 63 -48 109t-122 46q-145 0 -205 -180z" />
<glyph unicode="3" horiz-adv-x="1200" d="M68 367l303 82q23 -78 82 -126.5t147 -48.5q80 0 135.5 45.5t55.5 120.5q0 72 -54.5 117t-142.5 45h-117v264h111q84 0 130 44t46 109.5t-47 105.5t-123 40q-143 0 -205 -178l-297 78q49 188 185.5 292.5t336.5 104.5q221 0 355.5 -117.5t134.5 -297.5q0 -135 -89 -218.5 t-177 -87.5v-2q109 0 202 -87t93 -238q0 -193 -147.5 -318t-371.5 -125q-201 0 -352 112t-194 284z" />
<glyph unicode="4" horiz-adv-x="1265" d="M68 260v256l702 918h279v-879h141v-295h-141v-260h-316v260h-665zM430 553h25q23 0 59.5 1t75.5 1h143v68q0 31 1 65.5t1 68.5t1 65.5t3 59t2 48.5v33l2 12h-4l-20 -31q-20 -31 -53 -79t-56 -79l-104 -135q-20 -27 -40 -51.5t-28 -34.5l-8 -10v-2z" />
<glyph unicode="5" horiz-adv-x="1200" d="M98 336l305 80q49 -152 199 -152q82 0 135.5 59.5t53.5 149.5q0 94 -54.5 151.5t-134.5 57.5q-131 0 -170 -98l-289 78l131 772h768v-318h-526l-4 -20q-12 -61 -24 -107l-15 -61l-4 -17l2 -2q53 31 150 31q215 0 360 -133t145 -338q0 -213 -146 -355.5t-366 -142.5 q-201 0 -338 110t-178 255z" />
<glyph unicode="6" horiz-adv-x="1169" d="M68 475q0 158 58 289t181 301l268 369h351l-371 -510l4 -2q43 39 113 39q207 0 332.5 -145.5t125.5 -356.5q0 -213 -151.5 -350.5t-380.5 -137.5q-223 0 -376.5 139.5t-153.5 364.5zM397 475q0 -90 59.5 -146.5t151.5 -56.5t150.5 57.5t58.5 145.5q0 90 -58.5 146.5 t-150.5 56.5q-94 0 -152.5 -57.5t-58.5 -145.5z" />
<glyph unicode="7" horiz-adv-x="1105" d="M61 1116v318h1018v-205l-630 -1229h-355l402 768q41 76 92 164t82 137l30 49l-2 2h-14q-16 0 -39.5 -1t-51.5 -2t-59 -1h-55h-418z" />
<glyph unicode="8" horiz-adv-x="1185" d="M68 408q0 141 87 235t183 119v2q-70 18 -139.5 105t-69.5 206q0 166 131 276.5t334 110.5q201 0 332 -110.5t131 -276.5q0 -119 -69.5 -206t-139.5 -105v-2q98 -27 184 -121t86 -233q0 -188 -148.5 -312.5t-375.5 -126.5q-229 2 -377.5 127.5t-148.5 311.5zM383 416 q0 -78 60.5 -128t150.5 -50q92 0 150.5 51t58.5 127q0 78 -59.5 128t-149.5 50q-92 0 -151.5 -51t-59.5 -127zM412 1063q0 -66 52 -109t130 -43q80 0 131 43t51 109q0 68 -52 111t-130 43q-80 0 -131 -43t-51 -111z" />
<glyph unicode="9" horiz-adv-x="1173" d="M39 971q0 221 151.5 356t382.5 135q225 0 379 -138t154 -368q0 -287 -219 -565l-303 -391h-365l402 502l-3 2q-33 -33 -110 -33q-221 0 -345 142.5t-124 357.5zM354 956.5q0 -90.5 60.5 -146.5t152.5 -56t151.5 58t59.5 144q0 92 -59.5 148.5t-151.5 56.5 q-94 0 -153.5 -57t-59.5 -147.5z" />
<glyph unicode=":" horiz-adv-x="530" d="M109 135.5q0 65.5 46 111.5t111.5 46t110.5 -46t45 -111.5t-46 -113t-110 -47.5q-66 0 -111.5 47.5t-45.5 113zM109 731.5q0 65.5 46 111.5t111.5 46t110.5 -46t45 -111.5t-46 -113t-110 -47.5q-66 0 -111.5 47.5t-45.5 113z" />
<glyph unicode=";" horiz-adv-x="565" d="M109 -272q51 35 101 118.5t50 133.5l31 8l-31 4q-47 8 -81 47t-34 98q0 66 46.5 112t110 46t108.5 -50t45 -128q0 -94 -64.5 -202t-161.5 -187h-120zM145 731.5q0 65.5 46.5 111.5t112 46t110.5 -46t45 -111.5t-46 -113t-110 -47.5q-66 0 -112 47.5t-46 113z" />
<glyph unicode="&#x3c;" horiz-adv-x="1333" d="M221 752l490 -502h372l-467 502l467 499h-372z" />
<glyph unicode="=" horiz-adv-x="1333" d="M231 324v276h873v-276h-873zM231 813v277h873v-277h-873z" />
<glyph unicode="&#x3e;" horiz-adv-x="1333" d="M250 250l467 502l-467 499h373l489 -499l-489 -502h-373z" />
<glyph unicode="?" horiz-adv-x="1150" d="M68 1063q45 190 186 294.5t340 104.5q221 0 354 -119.5t133 -304.5q0 -154 -86 -249t-264 -203v-144h-336v260q113 72 159 103t99.5 74t69.5 74.5t16 70.5q0 55 -43 99t-121 44q-88 0 -141 -45t-84 -137zM395 0v322h336v-322h-336z" />
<glyph unicode="@" horiz-adv-x="1589" d="M68 707q0 328 204.5 541.5t520 213.5t522.5 -214t207 -541q0 -166 -84 -300.5t-250 -134.5q-84 0 -148.5 46.5t-85.5 119.5l-4 2q-23 -59 -91 -107t-144 -48q-158 0 -252 112.5t-94 294.5q0 186 100 300t266 114q70 0 117 -36t61 -66h2v69h215v-493q0 -147 82 -148 q111 0 111 275q0 250 -148.5 411.5t-382 161.5t-381 -162t-147.5 -411q0 -246 146.5 -407t373.5 -161q102 0 176 22.5t105 43t33 20.5l147 -73q0 -12 -46 -52.5t-160.5 -84.5t-254.5 -44q-313 0 -514.5 208.5t-201.5 527.5zM618 698q0 -90 46.5 -140t105.5 -50q53 0 98 45 t47 127v18q2 100 -42 145.5t-103 45.5t-106.5 -50.5t-45.5 -140.5z" />
<glyph unicode="A" horiz-adv-x="1386" d="M6 0l514 1434h348l514 -1434h-358l-72 225h-518l-72 -225h-356zM530 526h326l-100 312q-12 41 -28.5 99t-25.5 87l-8 29h-2l-8 -29q-8 -31 -23.5 -86t-29.5 -100z" />
<glyph unicode="B" horiz-adv-x="1275" d="M152 0v1434h563q190 0 311 -107.5t121 -271.5q0 -102 -57.5 -179t-124.5 -98v-2q102 -25 178 -123t76 -219q0 -197 -128 -315.5t-376 -118.5h-563zM487 285h205q80 0 128 46t48 120q0 76 -48 120.5t-128 44.5h-205v-331zM487 877h177q66 0 108.5 37.5t42.5 97.5 q0 61 -43 99t-108 38h-177v-272z" />
<glyph unicode="C" horiz-adv-x="1419" d="M68 717q0 334 191.5 539.5t485.5 205.5q201 0 358 -100t243 -281l-336 -88q-88 139 -265 140q-154 0 -240.5 -112t-86.5 -304.5t91 -302t239 -109.5q94 0 171.5 45t116.5 131l332 -88q-78 -197 -242.5 -309.5t-380.5 -112.5q-295 0 -486 206t-191 540z" />
<glyph unicode="D" horiz-adv-x="1480" d="M152 0v1434h542q313 0 516 -199t203 -524q0 -322 -199.5 -516.5t-515.5 -194.5h-546zM487 317h228q156 0 252 104.5t96 289.5q0 188 -100.5 296.5t-253.5 108.5h-222v-799z" />
<glyph unicode="E" horiz-adv-x="1259" d="M152 0v1434h964v-318h-629v-239h486v-299h-486v-259h641v-319h-976z" />
<glyph unicode="F" horiz-adv-x="1165" d="M152 0v1434h950v-318h-615v-285h471v-307h-471v-524h-335z" />
<glyph unicode="G" horiz-adv-x="1482" d="M68 717q0 334 191.5 539.5t485.5 205.5q201 0 358 -100t243 -281l-336 -88q-90 139 -265 140q-156 0 -242.5 -111t-86.5 -305.5t97 -306t257 -111.5q246 0 317 219v23h-333v272h618v-813h-285v37v29q0 12 1.5 21t1.5 14v10v6v2h-3q-53 -61 -150 -103.5t-200 -42.5 q-291 0 -480 205t-189 539z" />
<glyph unicode="H" horiz-adv-x="1445" d="M152 0v1434h335v-553h471v553h338v-1434h-338v557h-471v-557h-335z" />
<glyph unicode="I" horiz-adv-x="638" d="M152 0v1434h335v-1434h-335z" />
<glyph unicode="J" horiz-adv-x="1308" d="M23 338l327 88q63 -137 230 -137q125 0 194.5 78.5t69.5 216.5v850h336v-830q0 -299 -163 -466t-437 -167q-199 0 -349.5 101.5t-207.5 265.5z" />
<glyph unicode="K" horiz-adv-x="1419" d="M152 0v1434h335v-232q0 -92 -1 -169t-3 -103v-29h2l15 17q14 18 58 68t101 114l314 334h409l-573 -607l577 -827h-393l-405 594l-101 -107v-487h-335z" />
<glyph unicode="L" horiz-adv-x="1148" d="M152 0v1434h335v-1115h621v-319h-956z" />
<glyph unicode="M" horiz-adv-x="1640" d="M152 0v1434h315l246 -435q39 -70 65.5 -125t32.5 -75l8 -19h2l6 19q8 20 35 75.5t68 124.5l246 435h315v-1434h-328v381q0 137 5.5 260t9.5 174l4 53h-2l-25 -45q-27 -47 -55.5 -102t-38.5 -76l-156 -291h-170l-155 291q-8 20 -37 75.5t-53.5 101.5t-26.5 46h-4l4 -53 q4 -51 9 -174t5 -260v-381h-325z" />
<glyph unicode="N" d="M152 0v1434h307l299 -453q33 -47 99.5 -146.5t111.5 -164.5l45 -66h2l-2 66q-2 66 -4 192.5t-2 243.5v328h333v-1434h-307l-282 434q-49 72 -118 175.5t-112 166.5l-43 64h-4l2 -62q2 -61 5 -193t3 -268v-317h-333z" />
<glyph unicode="O" d="M68 717q0 334 191.5 539.5t485.5 205.5q297 0 488.5 -205.5t191.5 -539.5t-191.5 -540t-488.5 -206q-295 0 -486 206t-191 540zM418 717q0 -195 87 -305.5t240.5 -110.5t241.5 110.5t88 305.5q0 197 -88 306.5t-241.5 109.5t-240.5 -109.5t-87 -306.5z" />
<glyph unicode="P" horiz-adv-x="1249" d="M152 0v1434h512q248 0 391 -131.5t143 -358.5q0 -229 -143.5 -360t-390.5 -131h-177v-453h-335zM487 770h168q90 0 142.5 46t52.5 128t-52.5 128t-142.5 46h-168v-348z" />
<glyph unicode="Q" d="M68 717q0 334 191.5 539.5t485.5 205.5q297 0 488.5 -205.5t191.5 -539.5q0 -285 -142 -479.5t-376 -247.5v-260h-329v262q-229 55 -369.5 248.5t-140.5 476.5zM418 717q0 -195 87 -305.5t240.5 -110.5t241.5 110.5t88 305.5q0 197 -88 306.5t-241.5 109.5t-240.5 -109.5 t-87 -306.5z" />
<glyph unicode="R" horiz-adv-x="1312" d="M152 0v1434h507q248 0 397.5 -134.5t149.5 -355.5q0 -289 -245 -409l299 -535h-377l-244 469h-152v-469h-335zM487 770h205q80 0 122 51t42 123t-42 123t-122 51h-205v-348z" />
<glyph unicode="S" horiz-adv-x="1193" d="M41 406l321 86q27 -92 97.5 -155t169.5 -63q78 0 121 35t43 88q0 31 -14.5 55.5t-52.5 47t-66.5 36t-96 40t-102.5 42.5q-57 29 -91 47.5t-84 50.5t-79 61.5t-58.5 70.5t-43 92t-13.5 111q0 162 143.5 286.5t364.5 124.5q193 0 338 -108.5t197 -280.5l-320 -88 q-27 90 -91.5 137t-141.5 47q-68 0 -108 -29.5t-40 -74.5q0 -14 4 -26.5t14.5 -25t20.5 -22.5t29.5 -22.5t35 -20.5t43 -21.5t46 -21.5t54.5 -22.5t56 -24.5q84 -35 146.5 -71.5t127 -90t99.5 -125t35 -157.5q0 -193 -146.5 -318t-380.5 -125q-221 0 -368.5 117t-208.5 318z " />
<glyph unicode="T" horiz-adv-x="1171" d="M20 1116v318h1131v-318h-399v-1116h-336v1116h-396z" />
<glyph unicode="U" horiz-adv-x="1443" d="M129 604v830h338v-828q0 -317 254 -317q256 0 256 317v828h338v-830q0 -299 -160 -466t-434.5 -167t-433 167t-158.5 466z" />
<glyph unicode="V" horiz-adv-x="1386" d="M6 1434h365l245 -791q23 -74 41.5 -146.5t26.5 -107.5l8 -33h2l8 33q8 35 27 107.5t41 146.5l246 791h366l-497 -1434h-383z" />
<glyph unicode="W" horiz-adv-x="2041" d="M47 1434h361l151 -676q12 -59 25.5 -128t19.5 -104l6 -34h2l9 36q8 35 25.5 101.5t37.5 128.5l178 563h318l180 -563q18 -61 35.5 -128t25.5 -102l9 -36h4l6 34q6 35 17 102.5t26 129.5l151 676h363l-389 -1434h-330l-197 662q-18 63 -32.5 128.5t-20.5 98.5l-6 33h-2 l-6 -33q-6 -33 -20.5 -98.5t-32.5 -128.5l-197 -662h-330z" />
<glyph unicode="X" horiz-adv-x="1345" d="M20 0l453 737l-426 697h397l158 -281q10 -18 27.5 -55t29.5 -64l13 -26h2l14 26q12 27 29.5 65t27.5 54l158 281h397l-428 -697l453 -737h-397l-154 256q-98 188 -100 188h-2l-99 -188l-153 -256h-400z" />
<glyph unicode="Y" horiz-adv-x="1394" d="M20 1434h369l236 -387q18 -35 36.5 -69t26.5 -48l8 -17h2l9 17q8 14 26.5 48t36.5 69l236 387h368l-510 -824v-610h-334v610z" />
<glyph unicode="Z" horiz-adv-x="1349" d="M115 0v317l585 676q23 25 55 57l52 52l20 18l-4 2h-14q-14 -2 -36.5 -3t-50.5 -1t-61.5 -1t-62.5 -1h-463v318h1100v-316l-561 -663q-27 -33 -58.5 -68t-50.5 -55l-16 -19l2 -2h6q6 0 17.5 1t25.5 2t34.5 2t42 2t47.5 1h52h459v-319h-1120z" />
<glyph unicode="[" horiz-adv-x="761" d="M152 -311v2064h589v-315h-254v-1432h254v-317h-589z" />
<glyph unicode="\" horiz-adv-x="1007" d="M6 1434l647 -1434h348l-671 1434h-324z" />
<glyph unicode="]" horiz-adv-x="765" d="M25 6v-317h589v2064h-589v-315h254v-1432h-254z" />
<glyph unicode="^" horiz-adv-x="1206" d="M152 977l452 487l453 -487l-146 -127l-307 338l-309 -338z" />
<glyph unicode="_" horiz-adv-x="1521" d="M152 0h1218v-268h-1218v268z" />
<glyph unicode="`" horiz-adv-x="657" d="M10 1702l121 227l457 -258l-105 -178z" />
<glyph unicode="a" horiz-adv-x="1386" d="M6 0l514 1434h348l514 -1434h-358l-72 225h-518l-72 -225h-356zM530 526h326l-100 312q-12 41 -28.5 99t-25.5 87l-8 29h-2l-8 -29q-8 -31 -23.5 -86t-29.5 -100z" />
<glyph unicode="b" horiz-adv-x="1275" d="M152 0v1434h563q190 0 311 -107.5t121 -271.5q0 -102 -57.5 -179t-124.5 -98v-2q102 -25 178 -123t76 -219q0 -197 -128 -315.5t-376 -118.5h-563zM487 285h205q80 0 128 46t48 120q0 76 -48 120.5t-128 44.5h-205v-331zM487 877h177q66 0 108.5 37.5t42.5 97.5 q0 61 -43 99t-108 38h-177v-272z" />
<glyph unicode="c" horiz-adv-x="1419" d="M68 717q0 334 191.5 539.5t485.5 205.5q201 0 358 -100t243 -281l-336 -88q-88 139 -265 140q-154 0 -240.5 -112t-86.5 -304.5t91 -302t239 -109.5q94 0 171.5 45t116.5 131l332 -88q-78 -197 -242.5 -309.5t-380.5 -112.5q-295 0 -486 206t-191 540z" />
<glyph unicode="d" horiz-adv-x="1480" d="M152 0v1434h542q313 0 516 -199t203 -524q0 -322 -199.5 -516.5t-515.5 -194.5h-546zM487 317h228q156 0 252 104.5t96 289.5q0 188 -100.5 296.5t-253.5 108.5h-222v-799z" />
<glyph unicode="e" horiz-adv-x="1259" d="M152 0v1434h964v-318h-629v-239h486v-299h-486v-259h641v-319h-976z" />
<glyph unicode="f" horiz-adv-x="1165" d="M152 0v1434h950v-318h-615v-285h471v-307h-471v-524h-335z" />
<glyph unicode="g" horiz-adv-x="1482" d="M68 717q0 334 191.5 539.5t485.5 205.5q201 0 358 -100t243 -281l-336 -88q-90 139 -265 140q-156 0 -242.5 -111t-86.5 -305.5t97 -306t257 -111.5q246 0 317 219v23h-333v272h618v-813h-285v37v29q0 12 1.5 21t1.5 14v10v6v2h-3q-53 -61 -150 -103.5t-200 -42.5 q-291 0 -480 205t-189 539z" />
<glyph unicode="h" horiz-adv-x="1445" d="M152 0v1434h335v-553h471v553h338v-1434h-338v557h-471v-557h-335z" />
<glyph unicode="i" horiz-adv-x="638" d="M152 0v1434h335v-1434h-335z" />
<glyph unicode="j" horiz-adv-x="1308" d="M23 338l327 88q63 -137 230 -137q125 0 194.5 78.5t69.5 216.5v850h336v-830q0 -299 -163 -466t-437 -167q-199 0 -349.5 101.5t-207.5 265.5z" />
<glyph unicode="k" horiz-adv-x="1419" d="M152 0v1434h335v-232q0 -92 -1 -169t-3 -103v-29h2l15 17q14 18 58 68t101 114l314 334h409l-573 -607l577 -827h-393l-405 594l-101 -107v-487h-335z" />
<glyph unicode="l" horiz-adv-x="1148" d="M152 0v1434h335v-1115h621v-319h-956z" />
<glyph unicode="m" horiz-adv-x="1640" d="M152 0v1434h315l246 -435q39 -70 65.5 -125t32.5 -75l8 -19h2l6 19q8 20 35 75.5t68 124.5l246 435h315v-1434h-328v381q0 137 5.5 260t9.5 174l4 53h-2l-25 -45q-27 -47 -55.5 -102t-38.5 -76l-156 -291h-170l-155 291q-8 20 -37 75.5t-53.5 101.5t-26.5 46h-4l4 -53 q4 -51 9 -174t5 -260v-381h-325z" />
<glyph unicode="n" d="M152 0v1434h307l299 -453q33 -47 99.5 -146.5t111.5 -164.5l45 -66h2l-2 66q-2 66 -4 192.5t-2 243.5v328h333v-1434h-307l-282 434q-49 72 -118 175.5t-112 166.5l-43 64h-4l2 -62q2 -61 5 -193t3 -268v-317h-333z" />
<glyph unicode="o" d="M68 717q0 334 191.5 539.5t485.5 205.5q297 0 488.5 -205.5t191.5 -539.5t-191.5 -540t-488.5 -206q-295 0 -486 206t-191 540zM418 717q0 -195 87 -305.5t240.5 -110.5t241.5 110.5t88 305.5q0 197 -88 306.5t-241.5 109.5t-240.5 -109.5t-87 -306.5z" />
<glyph unicode="p" horiz-adv-x="1249" d="M152 0v1434h512q248 0 391 -131.5t143 -358.5q0 -229 -143.5 -360t-390.5 -131h-177v-453h-335zM487 770h168q90 0 142.5 46t52.5 128t-52.5 128t-142.5 46h-168v-348z" />
<glyph unicode="q" d="M68 717q0 334 191.5 539.5t485.5 205.5q297 0 488.5 -205.5t191.5 -539.5q0 -285 -142 -479.5t-376 -247.5v-260h-329v262q-229 55 -369.5 248.5t-140.5 476.5zM418 717q0 -195 87 -305.5t240.5 -110.5t241.5 110.5t88 305.5q0 197 -88 306.5t-241.5 109.5t-240.5 -109.5 t-87 -306.5z" />
<glyph unicode="r" horiz-adv-x="1312" d="M152 0v1434h507q248 0 397.5 -134.5t149.5 -355.5q0 -289 -245 -409l299 -535h-377l-244 469h-152v-469h-335zM487 770h205q80 0 122 51t42 123t-42 123t-122 51h-205v-348z" />
<glyph unicode="s" horiz-adv-x="1193" d="M41 406l321 86q27 -92 97.5 -155t169.5 -63q78 0 121 35t43 88q0 31 -14.5 55.5t-52.5 47t-66.5 36t-96 40t-102.5 42.5q-57 29 -91 47.5t-84 50.5t-79 61.5t-58.5 70.5t-43 92t-13.5 111q0 162 143.5 286.5t364.5 124.5q193 0 338 -108.5t197 -280.5l-320 -88 q-27 90 -91.5 137t-141.5 47q-68 0 -108 -29.5t-40 -74.5q0 -14 4 -26.5t14.5 -25t20.5 -22.5t29.5 -22.5t35 -20.5t43 -21.5t46 -21.5t54.5 -22.5t56 -24.5q84 -35 146.5 -71.5t127 -90t99.5 -125t35 -157.5q0 -193 -146.5 -318t-380.5 -125q-221 0 -368.5 117t-208.5 318z " />
<glyph unicode="t" horiz-adv-x="1171" d="M20 1116v318h1131v-318h-399v-1116h-336v1116h-396z" />
<glyph unicode="u" horiz-adv-x="1443" d="M129 604v830h338v-828q0 -317 254 -317q256 0 256 317v828h338v-830q0 -299 -160 -466t-434.5 -167t-433 167t-158.5 466z" />
<glyph unicode="v" horiz-adv-x="1386" d="M6 1434h365l245 -791q23 -74 41.5 -146.5t26.5 -107.5l8 -33h2l8 33q8 35 27 107.5t41 146.5l246 791h366l-497 -1434h-383z" />
<glyph unicode="w" horiz-adv-x="2041" d="M47 1434h361l151 -676q12 -59 25.5 -128t19.5 -104l6 -34h2l9 36q8 35 25.5 101.5t37.5 128.5l178 563h318l180 -563q18 -61 35.5 -128t25.5 -102l9 -36h4l6 34q6 35 17 102.5t26 129.5l151 676h363l-389 -1434h-330l-197 662q-18 63 -32.5 128.5t-20.5 98.5l-6 33h-2 l-6 -33q-6 -33 -20.5 -98.5t-32.5 -128.5l-197 -662h-330z" />
<glyph unicode="x" horiz-adv-x="1345" d="M20 0l453 737l-426 697h397l158 -281q10 -18 27.5 -55t29.5 -64l13 -26h2l14 26q12 27 29.5 65t27.5 54l158 281h397l-428 -697l453 -737h-397l-154 256q-98 188 -100 188h-2l-99 -188l-153 -256h-400z" />
<glyph unicode="y" horiz-adv-x="1394" d="M20 1434h369l236 -387q18 -35 36.5 -69t26.5 -48l8 -17h2l9 17q8 14 26.5 48t36.5 69l236 387h368l-510 -824v-610h-334v610z" />
<glyph unicode="z" horiz-adv-x="1349" d="M115 0v317l585 676q23 25 55 57l52 52l20 18l-4 2h-14q-14 -2 -36.5 -3t-50.5 -1t-61.5 -1t-62.5 -1h-463v318h1100v-316l-561 -663q-27 -33 -58.5 -68t-50.5 -55l-16 -19l2 -2h6q6 0 17.5 1t25.5 2t34.5 2t42 2t47.5 1h52h459v-319h-1120z" />
<glyph unicode="{" horiz-adv-x="892" d="M152 721q6 2 14 6t30.5 25.5t40 52.5t32 92t14.5 139v199q0 254 152.5 408.5t436.5 154.5v-317q-53 0 -92 -10.5t-78.5 -40t-60 -94t-20.5 -160.5v-125q0 -78 -10.5 -140.5t-25 -96.5t-31.5 -56.5t-27.5 -29.5t-16.5 -7q6 0 16.5 -7t27.5 -29.5t31.5 -56.5t25 -96.5 t10.5 -140.5v-125q0 -182 68.5 -243.5t182.5 -61.5v-317q-285 0 -437 154.5t-152 408.5v199q0 78 -13.5 138t-33 92t-39 52.5t-33.5 26.5z" />
<glyph unicode="|" horiz-adv-x="567" d="M152 -152v1739h266v-1739h-266z" />
<glyph unicode="}" horiz-adv-x="897" d="M25 -39v-317q285 0 437 154.5t152 408.5v199q0 78 13.5 138t33 92t39 52.5t33.5 26.5l12 6q-6 2 -14 6t-30.5 25.5t-40 52.5t-32 92t-14.5 139v199q0 254 -152.5 408.5t-436.5 154.5v-317q53 0 92 -10.5t79 -40t60 -94t20 -160.5v-125q0 -78 10.5 -140.5t25 -96.5 t31.5 -56.5t27.5 -29.5t16.5 -7q-6 0 -16.5 -7t-27.5 -29.5t-31.5 -56.5t-25 -96.5t-10.5 -140.5v-125q0 -182 -68 -243.5t-183 -61.5z" />
<glyph unicode="~" horiz-adv-x="1333" d="M98 592q20 152 124 224.5t224 72.5q98 0 235.5 -62.5t176.5 -62.5q70 0 98.5 37t28.5 84l272 -72q-20 -152 -124.5 -225.5t-225.5 -73.5q-98 0 -235 62.5t-178 62.5q-70 0 -98.5 -36t-30.5 -83z" />
<glyph unicode="&#xa1;" horiz-adv-x="638" d="M152 0v993h335v-993h-335zM152 1112v322h335v-322h-335z" />
<glyph unicode="&#xa2;" horiz-adv-x="1099" d="M68 706.5q0 204.5 102 350t268 188.5v215h260v-211q117 -29 204 -106.5t132 -192.5l-284 -73q-59 102 -177 102q-203 0 -202 -272q0 -133 53 -203t151 -70q139 0 189 135l285 -77q-41 -125 -133.5 -211t-217.5 -117v-191h-260v195q-166 43 -268 188.5t-102 350z" />
<glyph unicode="&#xa3;" horiz-adv-x="1261" d="M152 0v319q82 14 105.5 61.5t12.5 143.5l-4 35h-112v264h88l-17 172q-18 188 117 325.5t332 141.5q102 2 202.5 -34.5t189.5 -132t124 -232.5l-285 -78q-25 82 -77 132t-128 46q-72 -2 -110.5 -54t-28.5 -136l14 -150h351v-264h-324l2 -24q14 -160 -74 -226l2 -2h9 q8 2 22.5 3t33.5 2t47 2t57.5 2t68.5 2t78 1h342v-319h-1038z" />
<glyph unicode="&#xa4;" horiz-adv-x="1306" d="M68 1133l165 165l134 -133q127 86 282 86q150 0 289 -86l133 133l166 -165l-135 -138q82 -129 82 -303q0 -170 -88 -313l131 -129l-166 -166l-131 131q-135 -82 -281 -82q-147 0 -274 80l-129 -129l-166 166l129 127q-88 147 -88 315t82 305zM424 698q0 -121 63.5 -190.5 t163.5 -69.5q102 0 167 70t65 190q0 119 -64.5 188.5t-167.5 69.5q-98 0 -162.5 -70.5t-64.5 -187.5z" />
<glyph unicode="&#xa5;" horiz-adv-x="1392" d="M20 1434h369l236 -387q18 -35 36.5 -69t26.5 -48l8 -17h2l9 17q8 14 26.5 48t36.5 69l236 387h368l-289 -467h172v-217h-307l-41 -66h348v-217h-393v-467h-334v467h-391v217h346l-41 66h-305v217h170z" />
<glyph unicode="&#xa6;" horiz-adv-x="567" d="M152 -152v594h266v-594h-266zM152 1014v573h266v-573h-266z" />
<glyph unicode="&#xa7;" horiz-adv-x="1036" d="M41 270l272 72q25 -66 85.5 -111t142.5 -45q70 0 106.5 25t36.5 61q0 16 -6 30.5t-22.5 27t-33 22.5t-45 21.5t-51 18.5t-62.5 21.5t-65 22.5q-78 31 -119.5 51.5t-96 57.5t-79 85t-24.5 111q0 133 162 205q-154 86 -154 228q0 113 122 200.5t308 87.5q160 0 281 -73.5 t166 -188.5l-265 -72q-23 63 -76 96t-120 33q-55 0 -89 -20t-34 -51q0 -23 11 -39.5t38 -30.5t51 -22l74 -25q49 -16 82 -29q152 -53 246 -125.5t94 -185.5q0 -145 -160 -201q170 -100 170 -241q0 -137 -125 -226.5t-327 -89.5q-186 0 -312.5 81t-181.5 218zM352 756 q0 -20 11.5 -37t41 -31t53 -22.5t75 -23.5t77.5 -26q90 20 90 97q0 18 -6 32.5t-20.5 26.5t-27.5 20.5t-38.5 17.5t-44 14t-53.5 15.5l-55 16.5q-103 -24 -103 -100z" />
<glyph unicode="&#xa8;" horiz-adv-x="897" d="M8 1720q0 63 43 106.5t105 43.5q59 0 101 -43t42 -107q0 -61 -42 -104t-101 -43q-61 0 -104.5 43t-43.5 104zM528 1720q0 63 42 106.5t104 43.5q59 0 102 -43t43 -107q0 -61 -43 -104t-102 -43q-61 0 -103.5 43t-42.5 104z" />
<glyph unicode="&#xa9;" horiz-adv-x="1562" d="M68 716.5q0 321.5 204.5 533.5t507.5 212t509 -212t206 -533.5t-206 -533.5t-509 -212t-507.5 212t-204.5 533.5zM309 717q0 -225 133 -371.5t338 -146.5q207 0 340 145t133 373q0 229 -133 376.5t-340 147.5q-205 0 -338 -147.5t-133 -376.5zM469 716.5q0 153.5 89 250 t224 96.5q96 0 174 -52.5t113 -140.5l-180 -49q-39 61 -107 62q-123 0 -123 -166q0 -80 33 -122t90 -42q82 0 115 80l180 -49q-31 -96 -111.5 -153.5t-183.5 -57.5q-135 0 -224 95t-89 248.5z" />
<glyph unicode="&#xaa;" horiz-adv-x="720" d="M41 438v203h639v-203h-639zM41 768l221 682h195l223 -682h-205l-26 106h-181l-26 -106h-201zM307 1024h103l-15 53q-10 43 -18 89t-12 67l-5 22h-2l-4 -22l-12 -68q-8 -45 -20 -88z" />
<glyph unicode="&#xab;" horiz-adv-x="1529" d="M152 721l438 -479l194 176l-286 303l284 301l-190 176zM748 721l438 -479l194 176l-286 303l284 301l-190 176z" />
<glyph unicode="&#xad;" horiz-adv-x="1163" d="M152 588v276h872v-276h-872z" />
<glyph unicode="&#xae;" horiz-adv-x="1562" d="M68 716.5q0 321.5 204.5 533.5t507.5 212t509 -212t206 -533.5t-206 -533.5t-509 -212t-507.5 212t-204.5 533.5zM309 717q0 -225 133 -371.5t338 -146.5q207 0 340 145t133 373q0 229 -133 376.5t-340 147.5q-205 0 -338 -147.5t-133 -376.5zM543 377v682h243 q119 0 190 -62.5t71 -167.5q0 -135 -111 -190l147 -262h-192l-115 229h-53v-229h-180zM723 754h80q29 0 46 20.5t17 49t-17.5 49t-45.5 20.5h-80v-139z" />
<glyph unicode="&#xaf;" horiz-adv-x="667" d="M-31 1366v262h664v-262h-664z" />
<glyph unicode="&#xb0;" horiz-adv-x="667" d="M33 1468q0 125 89 215.5t212 90.5q125 0 213 -89.5t88 -216.5t-88 -215t-213 -88q-123 0 -212 89t-89 214zM229 1470q0 -45 32 -77.5t73 -32.5q45 0 77.5 32.5t32.5 77.5q0 47 -31.5 80t-78.5 33q-43 0 -74 -33t-31 -80z" />
<glyph unicode="&#xb1;" horiz-adv-x="1333" d="M231 -18v276h873v-276h-873zM231 588v276h291v307h287v-307h295v-276h-293v-189h-287v189h-293z" />
<glyph unicode="&#xb2;" horiz-adv-x="657" d="M37 1528q18 98 98 176t195 78q123 0 202.5 -77t79.5 -189q0 -125 -123 -236q-20 -18 -79 -66q-25 -18 -52.5 -34.5t-42.5 -24.5l-12 -8l2 -4h6q4 2 14.5 3t23.5 3t31.5 4t38 3t45 2t52.5 1h90v-186h-563v143l231 215q8 8 30 27.5t29 28t23.5 23.5t21.5 25.5t13 24 t11.5 27.5t3.5 29q0 31 -23 51t-55 20q-76 0 -107 -106z" />
<glyph unicode="&#xb3;" horiz-adv-x="675" d="M37 1186l182 49q20 -96 123 -96q41 0 66.5 22.5t25.5 57.5q0 37 -26.5 60.5t-69.5 23.5h-68v151h66q35 0 59.5 23.5t24.5 54.5t-23.5 51.5t-58.5 20.5q-86 0 -115 -99l-176 45q23 109 101.5 170.5t195.5 61.5q119 0 196.5 -64.5t77.5 -169.5q0 -76 -50 -121t-99 -47v-2 q63 -2 113.5 -47t50.5 -125q0 -109 -82 -179.5t-207 -70.5q-117 0 -202 67t-105 163z" />
<glyph unicode="&#xb4;" horiz-adv-x="657" d="M10 1671l457 258l121 -227l-475 -209z" />
<glyph unicode="&#xb6;" horiz-adv-x="1605" d="M68 1006q0 201 131 314.5t362 113.5h893v-1434h-336v1110h-164v-1110h-317v575h-76q-231 0 -362 114t-131 317z" />
<glyph unicode="&#xb7;" horiz-adv-x="530" d="M109 731.5q0 65.5 46 111.5t111.5 46t110.5 -46t45 -111.5t-46 -113t-110 -47.5q-66 0 -111.5 47.5t-45.5 113z" />
<glyph unicode="&#xb8;" horiz-adv-x="563" d="M16 -557l68 176h166q55 0 55 47q0 45 -55 49h-213l96 285h184l-43 -115q86 2 150.5 -58t64.5 -159q0 -115 -67.5 -170t-169.5 -55h-236z" />
<glyph unicode="&#xb9;" horiz-adv-x="520" d="M23 1505l284 260h148v-792h-209v362q0 23 1 48.5t4 45t5 36t2 26.5l2 8h-2q-2 0 -9 -11t-22.5 -30.5t-33.5 -36.5l-37 -32z" />
<glyph unicode="&#xba;" horiz-adv-x="692" d="M20 1106q0 158 92.5 255t233.5 97q139 0 232.5 -97t93.5 -255t-93.5 -254t-232.5 -96q-141 0 -233.5 96t-92.5 254zM41 438v203h610v-203h-610zM217 1106q0 -76 36 -117t93 -41t93 41t36 117q0 78 -36 119t-93 41t-93 -41t-36 -119z" />
<glyph unicode="&#xbb;" horiz-adv-x="1529" d="M152 418l284 303l-284 301l190 176l440 -477l-438 -479zM748 418l286 303l-284 301l190 176l440 -477l-438 -479z" />
<glyph unicode="&#xbc;" horiz-adv-x="1449" d="M23 1174l284 260h148v-793h-209v363q0 23 1 48t4 44.5t5 36t2 26.5l2 8h-2q-2 0 -9 -11t-22.5 -30.5t-33.5 -35.5l-37 -33zM143 0l955 1434h213l-953 -1434h-215zM778 133v150l383 510h170v-480h76v-180h-76v-133h-188v133h-365zM987 307l2 -4q2 0 15.5 2t33 3t37.5 1h68 v111q0 12 1 25.5t2 25.5t1 22v15l2 6h-2l-4 -6q-6 -8 -15.5 -21.5t-17.5 -23.5l-86 -109q-12 -18 -29 -37z" />
<glyph unicode="&#xbd;" horiz-adv-x="1517" d="M23 1174l284 260h148v-793h-209v363q0 23 1 48t4 44.5t5 36t2 26.5l2 8h-2q-2 0 -9 -11t-22.5 -30.5t-33.5 -35.5l-37 -33zM143 0l955 1434h213l-953 -1434h-215zM899 555q18 98 98 176t195 78q123 0 203 -77t80 -189q0 -125 -123 -236q-20 -20 -80 -65 q-25 -18 -52.5 -35t-39.5 -25l-15 -8l2 -4l4 2q6 0 16.5 1t24 3t32 4t37.5 3t45 2t52 1h90v-186h-563v143l232 215q8 8 29.5 28t28.5 28t23.5 23.5t21.5 25.5t13.5 23.5t11.5 27.5t3 29q0 31 -22.5 51t-55.5 20q-76 0 -107 -106z" />
<glyph unicode="&#xbe;" horiz-adv-x="1554" d="M37 854l182 49q20 -96 123 -96q41 0 66.5 22.5t25.5 57.5q0 37 -26.5 60.5t-69.5 23.5h-68v151h66q35 0 59.5 23.5t24.5 54.5t-23.5 51.5t-58.5 20.5q-86 0 -115 -98l-176 45q23 109 101.5 170t195.5 61q119 0 196.5 -64.5t77.5 -168.5q0 -76 -50 -121t-99 -47v-2 q63 -2 113.5 -47.5t50.5 -125.5q0 -109 -82 -179t-207 -70q-117 0 -202 66.5t-105 162.5zM248 0l954 1434h213l-952 -1434h-215zM881 133v150l383 510h170v-480h75v-180h-75v-133h-189v133h-364zM1090 307l2 -4q2 0 15 2t32.5 3t38.5 1h67v111q0 12 1 25.5t2 25.5t1 22v15 l2 6h-2l-4 -6q-6 -8 -15 -21.5t-18 -23.5l-86 -109q-12 -18 -28 -37z" />
<glyph unicode="&#xbf;" horiz-adv-x="1150" d="M70 395q0 154 86 249t264 204v143h336v-260q-113 -72 -159 -102.5t-99.5 -73.5t-69.5 -74.5t-16 -70.5q0 -55 43 -99.5t120 -44.5q88 0 141.5 45t84.5 138l282 -78q-45 -190 -186 -295t-340 -105q-221 0 -354 120t-133 304zM420 1112v322h336v-322h-336z" />
<glyph unicode="&#xc0;" horiz-adv-x="1386" d="M6 0l514 1434h348l514 -1434h-358l-72 225h-518l-72 -225h-356zM311 1702l121 227l457 -258l-105 -178zM530 526h326l-100 312q-12 41 -28.5 99t-25.5 87l-8 29h-2l-8 -29q-8 -31 -23.5 -86t-29.5 -100z" />
<glyph unicode="&#xc1;" horiz-adv-x="1386" d="M6 0l514 1434h348l514 -1434h-358l-72 225h-518l-72 -225h-356zM446 1671l457 258l121 -227l-475 -209zM530 526h326l-100 312q-12 41 -28.5 99t-25.5 87l-8 29h-2l-8 -29q-8 -31 -23.5 -86t-29.5 -100z" />
<glyph unicode="&#xc2;" horiz-adv-x="1386" d="M6 0l514 1434h348l514 -1434h-358l-72 225h-518l-72 -225h-356zM303 1657l385 338l381 -338l-158 -164l-223 190l-223 -190zM530 526h326l-100 312q-12 41 -28.5 99t-25.5 87l-8 29h-2l-8 -29q-8 -31 -23.5 -86t-29.5 -100z" />
<glyph unicode="&#xc3;" horiz-adv-x="1386" d="M6 0l514 1434h348l514 -1434h-358l-72 225h-518l-72 -225h-356zM223 1554q0 135 87 224.5t220 89.5q86 0 178.5 -60.5t127.5 -60.5q39 0 61.5 24.5t22.5 61.5h256q0 -135 -88.5 -224t-221.5 -89q-82 0 -175 60t-128 60q-41 0 -63.5 -23.5t-22.5 -62.5h-254zM530 526h326 l-100 312q-12 41 -28.5 99t-25.5 87l-8 29h-2l-8 -29q-8 -31 -23.5 -86t-29.5 -100z" />
<glyph unicode="&#xc4;" horiz-adv-x="1386" d="M6 0l514 1434h348l514 -1434h-358l-72 225h-518l-72 -225h-356zM283 1720q0 63 42 106.5t103 43.5q59 0 101 -43t42 -107q0 -61 -42 -104t-101 -43q-61 0 -103 43t-42 104zM530 526h326l-100 312q-12 41 -28.5 99t-25.5 87l-8 29h-2l-8 -29q-8 -31 -23.5 -86t-29.5 -100z M803 1720q0 63 41 106.5t102.5 43.5t103.5 -43t42 -107q0 -61 -42 -104t-103.5 -43t-102.5 43t-41 104z" />
<glyph unicode="&#xc5;" horiz-adv-x="1386" d="M6 0l514 1434h8q-139 92 -139 256q0 125 89 214t214 89t213 -89t88 -214q0 -166 -137 -256h12l514 -1434h-358l-72 225h-518l-72 -225h-356zM530 526h326l-100 312q-12 41 -28.5 99t-25.5 87l-8 29h-2l-8 -29q-8 -31 -23.5 -86t-29.5 -100zM586 1690q0 -45 31.5 -78 t74.5 -33q45 0 77 33t32 78q0 49 -31 81.5t-78 32.5q-43 0 -74.5 -32.5t-31.5 -81.5z" />
<glyph unicode="&#xc6;" horiz-adv-x="1955" d="M6 0l529 1434h1277v-318h-626v-239h483v-299h-483v-259h639v-319h-965v225h-420l-75 -225h-359zM537 522h323v594h-129q-2 0 -100 -311z" />
<glyph unicode="&#xc7;" horiz-adv-x="1419" d="M68 717q0 334 191.5 539.5t485.5 205.5q201 0 358 -100t243 -281l-336 -88q-88 139 -265 140q-154 0 -240.5 -112t-86.5 -304.5t91 -302t239 -109.5q94 0 171.5 45t116.5 131l332 -88q-70 -178 -213 -287.5t-332 -130.5l-32 -90q86 2 150.5 -58t64.5 -159 q0 -115 -68 -170t-170 -55h-236l68 176h166q55 0 55 47q0 45 -55 49h-213l88 265q-254 37 -413.5 235.5t-159.5 501.5z" />
<glyph unicode="&#xc8;" horiz-adv-x="1259" d="M152 0v1434h964v-318h-629v-239h486v-299h-486v-259h641v-319h-976zM281 1702l120 227l457 -258l-104 -178z" />
<glyph unicode="&#xc9;" horiz-adv-x="1259" d="M152 0v1434h964v-318h-629v-239h486v-299h-486v-259h641v-319h-976zM416 1671l456 258l121 -227l-475 -209z" />
<glyph unicode="&#xca;" horiz-adv-x="1259" d="M152 0v1434h964v-318h-629v-239h486v-299h-486v-259h641v-319h-976zM272 1657l385 338l381 -338l-157 -164l-224 190l-223 -190z" />
<glyph unicode="&#xcb;" horiz-adv-x="1259" d="M152 0v1434h964v-318h-629v-239h486v-299h-486v-259h641v-319h-976zM252 1720q0 63 42 106.5t103 43.5q59 0 101.5 -43t42.5 -107q0 -61 -42 -104t-102 -43q-61 0 -103 43t-42 104zM772 1720q0 63 41 106.5t102.5 43.5t103.5 -43t42 -107q0 -61 -42 -104t-103.5 -43 t-102.5 43t-41 104z" />
<glyph unicode="&#xcc;" horiz-adv-x="638" d="M-61 1702l120 227l457 -258l-104 -178zM152 0v1434h335v-1434h-335z" />
<glyph unicode="&#xcd;" horiz-adv-x="638" d="M74 1671l456 258l121 -227l-475 -209zM152 0v1434h335v-1434h-335z" />
<glyph unicode="&#xce;" horiz-adv-x="638" d="M-70 1657l385 338l381 -338l-157 -164l-224 190l-223 -190zM152 0v1434h335v-1434h-335z" />
<glyph unicode="&#xcf;" horiz-adv-x="638" d="M-90 1720q0 63 42 106.5t103 43.5q59 0 101.5 -43t42.5 -107q0 -61 -42 -104t-102 -43q-61 0 -103 43t-42 104zM152 0v1434h335v-1434h-335zM430 1720q0 63 41 106.5t102.5 43.5t103.5 -43t42 -107q0 -61 -42 -104t-103.5 -43t-102.5 43t-41 104z" />
<glyph unicode="&#xd0;" horiz-adv-x="1503" d="M68 571v308h106v555h543q313 0 516 -199t203 -524q0 -322 -200 -516.5t-515 -194.5h-547v571h-106zM510 317h227q156 0 252 104.5t96 289.5q0 188 -100 296.5t-254 108.5h-221v-237h209v-308h-209v-254z" />
<glyph unicode="&#xd1;" d="M152 0v1434h307l299 -453q33 -47 99.5 -146.5t111.5 -164.5l45 -66h2l-2 66q-2 66 -4 192.5t-2 243.5v328h333v-1434h-307l-282 434q-49 72 -118 175.5t-112 166.5l-43 64h-4l2 -62q2 -61 5 -193t3 -268v-317h-333zM276 1554q0 135 87.5 224.5t220.5 89.5q86 0 178 -60.5 t127 -60.5q39 0 61.5 24.5t22.5 61.5h256q0 -135 -88 -224t-221 -89q-82 0 -175.5 60t-128.5 60q-41 0 -63.5 -23.5t-22.5 -62.5h-254z" />
<glyph unicode="&#xd2;" d="M68 717q0 334 191.5 539.5t485.5 205.5q297 0 488.5 -205.5t191.5 -539.5t-191.5 -540t-488.5 -206q-295 0 -486 206t-191 540zM373 1702l121 227l456 -258l-104 -178zM418 717q0 -195 87 -305.5t240.5 -110.5t241.5 110.5t88 305.5q0 197 -88 306.5t-241.5 109.5 t-240.5 -109.5t-87 -306.5z" />
<glyph unicode="&#xd3;" d="M68 717q0 334 191.5 539.5t485.5 205.5q297 0 488.5 -205.5t191.5 -539.5t-191.5 -540t-488.5 -206q-295 0 -486 206t-191 540zM418 717q0 -195 87 -305.5t240.5 -110.5t241.5 110.5t88 305.5q0 197 -88 306.5t-241.5 109.5t-240.5 -109.5t-87 -306.5zM508 1671l457 258 l120 -227l-475 -209z" />
<glyph unicode="&#xd4;" d="M68 717q0 334 191.5 539.5t485.5 205.5q297 0 488.5 -205.5t191.5 -539.5t-191.5 -540t-488.5 -206q-295 0 -486 206t-191 540zM365 1657l385 338l380 -338l-157 -164l-223 190l-224 -190zM418 717q0 -195 87 -305.5t240.5 -110.5t241.5 110.5t88 305.5q0 197 -88 306.5 t-241.5 109.5t-240.5 -109.5t-87 -306.5z" />
<glyph unicode="&#xd5;" d="M68 717q0 334 191.5 539.5t485.5 205.5q297 0 488.5 -205.5t191.5 -539.5t-191.5 -540t-488.5 -206q-295 0 -486 206t-191 540zM285 1554q0 135 87 224.5t220 89.5q86 0 178 -60.5t127 -60.5q39 0 61.5 24.5t22.5 61.5h256q0 -135 -88 -224t-221 -89q-82 0 -175.5 60 t-127.5 60q-41 0 -63.5 -23.5t-22.5 -62.5h-254zM418 717q0 -195 87 -305.5t240.5 -110.5t241.5 110.5t88 305.5q0 197 -88 306.5t-241.5 109.5t-240.5 -109.5t-87 -306.5z" />
<glyph unicode="&#xd6;" d="M68 717q0 334 191.5 539.5t485.5 205.5q297 0 488.5 -205.5t191.5 -539.5t-191.5 -540t-488.5 -206q-295 0 -486 206t-191 540zM344 1720q0 63 42 106.5t103 43.5q59 0 101.5 -43t42.5 -107q0 -61 -42 -104t-102 -43q-61 0 -103 43t-42 104zM418 717q0 -195 87 -305.5 t240.5 -110.5t241.5 110.5t88 305.5q0 197 -88 306.5t-241.5 109.5t-240.5 -109.5t-87 -306.5zM864 1720q0 63 41 106.5t102.5 43.5t103.5 -43t42 -107q0 -61 -42 -104t-103.5 -43t-102.5 43t-41 104z" />
<glyph unicode="&#xd7;" horiz-adv-x="1333" d="M231 958l222 209l215 -227l215 231l221 -208l-230 -244l228 -242l-219 -209l-215 232l-215 -228l-220 209l226 238z" />
<glyph unicode="&#xd8;" d="M68 717q0 334 191.5 539.5t485.5 205.5q168 0 304 -67l65 94l240 -164l-80 -115q152 -201 151 -493q0 -334 -191.5 -540t-488.5 -206q-160 0 -296 66l-64 -92l-238 168l76 106q-155 201 -155 498zM418 717q0 -104 24 -185l410 584q-53 16 -107 17q-154 0 -240.5 -109.5 t-86.5 -306.5zM645 315q43 -14 100 -14q154 0 242 110.5t88 305.5q0 98 -22 178z" />
<glyph unicode="&#xd9;" horiz-adv-x="1443" d="M129 604v830h338v-828q0 -317 254 -317q256 0 256 317v828h338v-830q0 -299 -160 -466t-434.5 -167t-433 167t-158.5 466zM342 1702l121 227l457 -258l-105 -178z" />
<glyph unicode="&#xda;" horiz-adv-x="1443" d="M129 604v830h338v-828q0 -317 254 -317q256 0 256 317v828h338v-830q0 -299 -160 -466t-434.5 -167t-433 167t-158.5 466zM477 1671l457 258l121 -227l-475 -209z" />
<glyph unicode="&#xdb;" horiz-adv-x="1443" d="M129 604v830h338v-828q0 -317 254 -317q256 0 256 317v828h338v-830q0 -299 -160 -466t-434.5 -167t-433 167t-158.5 466zM334 1657l385 338l381 -338l-158 -164l-223 190l-223 -190z" />
<glyph unicode="&#xdc;" horiz-adv-x="1443" d="M129 604v830h338v-828q0 -317 254 -317q256 0 256 317v828h338v-830q0 -299 -160 -466t-434.5 -167t-433 167t-158.5 466zM313 1720q0 63 42 106.5t104 43.5q59 0 101 -43t42 -107q0 -61 -42 -104t-101 -43q-61 0 -103.5 43t-42.5 104zM834 1720q0 63 40.5 106.5 t102 43.5t103.5 -43t42 -107q0 -61 -42 -104t-103.5 -43t-102 43t-40.5 104z" />
<glyph unicode="&#xdd;" horiz-adv-x="1394" d="M20 1434h369l236 -387q18 -35 36.5 -69t26.5 -48l8 -17h2l9 17q8 14 26.5 48t36.5 69l236 387h368l-510 -824v-610h-334v610zM451 1671l456 258l121 -227l-475 -209z" />
<glyph unicode="&#xde;" horiz-adv-x="1255" d="M152 0v1434h335v-226h170q244 0 392.5 -136t148.5 -355q0 -217 -148.5 -353.5t-392.5 -136.5h-170v-227h-335zM487 543h179q88 0 136 48t48 126q0 80 -48 127t-136 47h-179v-348z" />
<glyph unicode="&#xdf;" horiz-adv-x="1617" d="M152 0v1434h1284l-197 -373q-106 -205 -106 -207l4 -2h8q164 0 284.5 -125t120.5 -293q0 -199 -133 -331t-352 -132q-160 0 -284 75t-193 200l317 86q61 -74 146 -74q82 0 124 48t42 126q0 76 -51.5 123t-139.5 47h-215v250l61 129q14 31 32 64.5t26 52.5l10 20l-2 2h-8 q-10 0 -23.5 -1t-31 -2t-36.5 -1h-36h-316v-1116h-335z" />
<glyph unicode="&#xe0;" horiz-adv-x="1386" d="M6 0l514 1434h348l514 -1434h-358l-72 225h-518l-72 -225h-356zM311 1702l121 227l457 -258l-105 -178zM530 526h326l-100 312q-12 41 -28.5 99t-25.5 87l-8 29h-2l-8 -29q-8 -31 -23.5 -86t-29.5 -100z" />
<glyph unicode="&#xe1;" horiz-adv-x="1386" d="M6 0l514 1434h348l514 -1434h-358l-72 225h-518l-72 -225h-356zM446 1671l457 258l121 -227l-475 -209zM530 526h326l-100 312q-12 41 -28.5 99t-25.5 87l-8 29h-2l-8 -29q-8 -31 -23.5 -86t-29.5 -100z" />
<glyph unicode="&#xe2;" horiz-adv-x="1386" d="M6 0l514 1434h348l514 -1434h-358l-72 225h-518l-72 -225h-356zM303 1657l385 338l381 -338l-158 -164l-223 190l-223 -190zM530 526h326l-100 312q-12 41 -28.5 99t-25.5 87l-8 29h-2l-8 -29q-8 -31 -23.5 -86t-29.5 -100z" />
<glyph unicode="&#xe3;" horiz-adv-x="1386" d="M6 0l514 1434h348l514 -1434h-358l-72 225h-518l-72 -225h-356zM223 1554q0 135 87 224.5t220 89.5q86 0 178.5 -60.5t127.5 -60.5q39 0 61.5 24.5t22.5 61.5h256q0 -135 -88.5 -224t-221.5 -89q-82 0 -175 60t-128 60q-41 0 -63.5 -23.5t-22.5 -62.5h-254zM530 526h326 l-100 312q-12 41 -28.5 99t-25.5 87l-8 29h-2l-8 -29q-8 -31 -23.5 -86t-29.5 -100z" />
<glyph unicode="&#xe4;" horiz-adv-x="1386" d="M6 0l514 1434h348l514 -1434h-358l-72 225h-518l-72 -225h-356zM283 1720q0 63 42 106.5t103 43.5q59 0 101 -43t42 -107q0 -61 -42 -104t-101 -43q-61 0 -103 43t-42 104zM530 526h326l-100 312q-12 41 -28.5 99t-25.5 87l-8 29h-2l-8 -29q-8 -31 -23.5 -86t-29.5 -100z M803 1720q0 63 41 106.5t102.5 43.5t103.5 -43t42 -107q0 -61 -42 -104t-103.5 -43t-102.5 43t-41 104z" />
<glyph unicode="&#xe5;" horiz-adv-x="1386" d="M6 0l514 1434h8q-139 92 -139 256q0 125 89 214t214 89t213 -89t88 -214q0 -166 -137 -256h12l514 -1434h-358l-72 225h-518l-72 -225h-356zM530 526h326l-100 312q-12 41 -28.5 99t-25.5 87l-8 29h-2l-8 -29q-8 -31 -23.5 -86t-29.5 -100zM586 1690q0 -45 31.5 -78 t74.5 -33q45 0 77 33t32 78q0 49 -31 81.5t-78 32.5q-43 0 -74.5 -32.5t-31.5 -81.5z" />
<glyph unicode="&#xe6;" horiz-adv-x="1955" d="M6 0l529 1434h1277v-318h-626v-239h483v-299h-483v-259h639v-319h-965v225h-420l-75 -225h-359zM537 522h323v594h-129q-2 0 -100 -311z" />
<glyph unicode="&#xe7;" horiz-adv-x="1419" d="M68 717q0 334 191.5 539.5t485.5 205.5q201 0 358 -100t243 -281l-336 -88q-88 139 -265 140q-154 0 -240.5 -112t-86.5 -304.5t91 -302t239 -109.5q94 0 171.5 45t116.5 131l332 -88q-70 -178 -213 -287.5t-332 -130.5l-32 -90q86 2 150.5 -58t64.5 -159 q0 -115 -68 -170t-170 -55h-236l68 176h166q55 0 55 47q0 45 -55 49h-213l88 265q-254 37 -413.5 235.5t-159.5 501.5z" />
<glyph unicode="&#xe8;" horiz-adv-x="1259" d="M152 0v1434h964v-318h-629v-239h486v-299h-486v-259h641v-319h-976zM281 1702l120 227l457 -258l-104 -178z" />
<glyph unicode="&#xe9;" horiz-adv-x="1259" d="M152 0v1434h964v-318h-629v-239h486v-299h-486v-259h641v-319h-976zM416 1671l456 258l121 -227l-475 -209z" />
<glyph unicode="&#xea;" horiz-adv-x="1259" d="M152 0v1434h964v-318h-629v-239h486v-299h-486v-259h641v-319h-976zM272 1657l385 338l381 -338l-157 -164l-224 190l-223 -190z" />
<glyph unicode="&#xeb;" horiz-adv-x="1259" d="M152 0v1434h964v-318h-629v-239h486v-299h-486v-259h641v-319h-976zM252 1720q0 63 42 106.5t103 43.5q59 0 101.5 -43t42.5 -107q0 -61 -42 -104t-102 -43q-61 0 -103 43t-42 104zM772 1720q0 63 41 106.5t102.5 43.5t103.5 -43t42 -107q0 -61 -42 -104t-103.5 -43 t-102.5 43t-41 104z" />
<glyph unicode="&#xec;" horiz-adv-x="638" d="M-61 1702l120 227l457 -258l-104 -178zM152 0v1434h335v-1434h-335z" />
<glyph unicode="&#xed;" horiz-adv-x="638" d="M74 1671l456 258l121 -227l-475 -209zM152 0v1434h335v-1434h-335z" />
<glyph unicode="&#xee;" horiz-adv-x="638" d="M-70 1657l385 338l381 -338l-157 -164l-224 190l-223 -190zM152 0v1434h335v-1434h-335z" />
<glyph unicode="&#xef;" horiz-adv-x="638" d="M-90 1720q0 63 42 106.5t103 43.5q59 0 101.5 -43t42.5 -107q0 -61 -42 -104t-102 -43q-61 0 -103 43t-42 104zM152 0v1434h335v-1434h-335zM430 1720q0 63 41 106.5t102.5 43.5t103.5 -43t42 -107q0 -61 -42 -104t-103.5 -43t-102.5 43t-41 104z" />
<glyph unicode="&#xf0;" horiz-adv-x="1503" d="M68 571v308h106v555h543q313 0 516 -199t203 -524q0 -322 -200 -516.5t-515 -194.5h-547v571h-106zM510 317h227q156 0 252 104.5t96 289.5q0 188 -100 296.5t-254 108.5h-221v-237h209v-308h-209v-254z" />
<glyph unicode="&#xf1;" d="M152 0v1434h307l299 -453q33 -47 99.5 -146.5t111.5 -164.5l45 -66h2l-2 66q-2 66 -4 192.5t-2 243.5v328h333v-1434h-307l-282 434q-49 72 -118 175.5t-112 166.5l-43 64h-4l2 -62q2 -61 5 -193t3 -268v-317h-333zM276 1554q0 135 87.5 224.5t220.5 89.5q86 0 178 -60.5 t127 -60.5q39 0 61.5 24.5t22.5 61.5h256q0 -135 -88 -224t-221 -89q-82 0 -175.5 60t-128.5 60q-41 0 -63.5 -23.5t-22.5 -62.5h-254z" />
<glyph unicode="&#xf2;" d="M68 717q0 334 191.5 539.5t485.5 205.5q297 0 488.5 -205.5t191.5 -539.5t-191.5 -540t-488.5 -206q-295 0 -486 206t-191 540zM371 1702l121 227l456 -258l-104 -178zM418 717q0 -195 87 -305.5t240.5 -110.5t241.5 110.5t88 305.5q0 197 -88 306.5t-241.5 109.5 t-240.5 -109.5t-87 -306.5z" />
<glyph unicode="&#xf3;" d="M68 717q0 334 191.5 539.5t485.5 205.5q297 0 488.5 -205.5t191.5 -539.5t-191.5 -540t-488.5 -206q-295 0 -486 206t-191 540zM418 717q0 -195 87 -305.5t240.5 -110.5t241.5 110.5t88 305.5q0 197 -88 306.5t-241.5 109.5t-240.5 -109.5t-87 -306.5zM506 1671l457 258 l120 -227l-475 -209z" />
<glyph unicode="&#xf4;" d="M68 717q0 334 191.5 539.5t485.5 205.5q297 0 488.5 -205.5t191.5 -539.5t-191.5 -540t-488.5 -206q-295 0 -486 206t-191 540zM362 1657l386 338l380 -338l-157 -164l-223 190l-224 -190zM418 717q0 -195 87 -305.5t240.5 -110.5t241.5 110.5t88 305.5q0 197 -88 306.5 t-241.5 109.5t-240.5 -109.5t-87 -306.5z" />
<glyph unicode="&#xf5;" d="M68 717q0 334 191.5 539.5t485.5 205.5q297 0 488.5 -205.5t191.5 -539.5t-191.5 -540t-488.5 -206q-295 0 -486 206t-191 540zM283 1554q0 135 87 224.5t220 89.5q86 0 178 -60.5t127 -60.5q39 0 61.5 24.5t22.5 61.5h256q0 -135 -88 -224t-221 -89q-82 0 -175.5 60 t-127.5 60q-41 0 -63.5 -23.5t-22.5 -62.5h-254zM418 717q0 -195 87 -305.5t240.5 -110.5t241.5 110.5t88 305.5q0 197 -88 306.5t-241.5 109.5t-240.5 -109.5t-87 -306.5z" />
<glyph unicode="&#xf6;" d="M68 717q0 334 191.5 539.5t485.5 205.5q297 0 488.5 -205.5t191.5 -539.5t-191.5 -540t-488.5 -206q-295 0 -486 206t-191 540zM342 1720q0 63 42 106.5t103 43.5q59 0 101.5 -43t42.5 -107q0 -61 -42 -104t-102 -43q-61 0 -103 43t-42 104zM418 717q0 -195 87 -305.5 t240.5 -110.5t241.5 110.5t88 305.5q0 197 -88 306.5t-241.5 109.5t-240.5 -109.5t-87 -306.5zM862 1720q0 63 41 106.5t102.5 43.5t103.5 -43t42 -107q0 -61 -42 -104t-103.5 -43t-102.5 43t-41 104z" />
<glyph unicode="&#xf7;" horiz-adv-x="1333" d="M231 586v276h873v-276h-873zM500 264.5q0 65.5 46 111.5t111.5 46t110.5 -46t45 -111.5t-46 -113t-110 -47.5q-66 0 -111.5 47.5t-45.5 113zM500 1187.5q0 65.5 46 112t111.5 46.5t110.5 -46.5t45 -112t-46 -112.5t-110 -47q-66 0 -111.5 47t-45.5 112.5z" />
<glyph unicode="&#xf8;" d="M68 717q0 334 191.5 539.5t485.5 205.5q168 0 304 -67l65 94l240 -164l-80 -115q152 -201 151 -493q0 -334 -191.5 -540t-488.5 -206q-160 0 -296 66l-64 -92l-238 168l76 106q-155 201 -155 498zM418 717q0 -104 24 -185l410 584q-53 16 -107 17q-154 0 -240.5 -109.5 t-86.5 -306.5zM645 315q43 -14 100 -14q154 0 242 110.5t88 305.5q0 98 -22 178z" />
<glyph unicode="&#xf9;" horiz-adv-x="1443" d="M129 604v830h338v-828q0 -317 254 -317q256 0 256 317v828h338v-830q0 -299 -160 -466t-434.5 -167t-433 167t-158.5 466zM342 1702l121 227l457 -258l-105 -178z" />
<glyph unicode="&#xfa;" horiz-adv-x="1443" d="M129 604v830h338v-828q0 -317 254 -317q256 0 256 317v828h338v-830q0 -299 -160 -466t-434.5 -167t-433 167t-158.5 466zM477 1671l457 258l121 -227l-475 -209z" />
<glyph unicode="&#xfb;" horiz-adv-x="1443" d="M129 604v830h338v-828q0 -317 254 -317q256 0 256 317v828h338v-830q0 -299 -160 -466t-434.5 -167t-433 167t-158.5 466zM334 1657l385 338l381 -338l-158 -164l-223 190l-223 -190z" />
<glyph unicode="&#xfc;" horiz-adv-x="1443" d="M129 604v830h338v-828q0 -317 254 -317q256 0 256 317v828h338v-830q0 -299 -160 -466t-434.5 -167t-433 167t-158.5 466zM313 1720q0 63 42 106.5t104 43.5q59 0 101 -43t42 -107q0 -61 -42 -104t-101 -43q-61 0 -103.5 43t-42.5 104zM834 1720q0 63 40.5 106.5 t102 43.5t103.5 -43t42 -107q0 -61 -42 -104t-103.5 -43t-102 43t-40.5 104z" />
<glyph unicode="&#xfd;" horiz-adv-x="1394" d="M20 1434h369l236 -387q18 -35 36.5 -69t26.5 -48l8 -17h2l9 17q8 14 26.5 48t36.5 69l236 387h368l-510 -824v-610h-334v610zM453 1671l456 258l121 -227l-475 -209z" />
<glyph unicode="&#xfe;" horiz-adv-x="1255" d="M152 0v1434h335v-226h170q244 0 392.5 -136t148.5 -355q0 -217 -148.5 -353.5t-392.5 -136.5h-170v-227h-335zM487 543h179q88 0 136 48t48 126q0 80 -48 127t-136 47h-179v-348z" />
<glyph unicode="&#xff;" horiz-adv-x="1394" d="M20 1434h369l236 -387q18 -35 36.5 -69t26.5 -48l8 -17h2l9 17q8 14 26.5 48t36.5 69l236 387h368l-510 -824v-610h-334v610zM289 1720q0 63 42 106.5t103 43.5q59 0 101.5 -43t42.5 -107q0 -61 -42 -104t-102 -43q-61 0 -103 43t-42 104zM809 1720q0 63 41 106.5 t102.5 43.5t103.5 -43t42 -107q0 -61 -42 -104t-103.5 -43t-102.5 43t-41 104z" />
<glyph unicode="&#x152;" horiz-adv-x="2002" d="M68 717q0 330 185 527.5t478 197.5q109 0 176 -10v2h955v-318h-629v-239h483v-299h-483v-259h641v-319h-967v2q-68 -10 -176 -10q-293 0 -478 197.5t-185 527.5zM418 716.5q0 -188.5 85 -290.5t232 -102q106 0 172 28v731q-74 29 -172 29q-147 0 -232 -103.5t-85 -292z " />
<glyph unicode="&#x153;" horiz-adv-x="2002" d="M68 717q0 330 185 527.5t478 197.5q109 0 176 -10v2h955v-318h-629v-239h483v-299h-483v-259h641v-319h-967v2q-68 -10 -176 -10q-293 0 -478 197.5t-185 527.5zM418 716.5q0 -188.5 85 -290.5t232 -102q106 0 172 28v731q-74 29 -172 29q-147 0 -232 -103.5t-85 -292z " />
<glyph unicode="&#x178;" horiz-adv-x="1394" d="M20 1434h369l236 -387q18 -35 36.5 -69t26.5 -48l8 -17h2l9 17q8 14 26.5 48t36.5 69l236 387h368l-510 -824v-610h-334v610zM287 1720q0 63 42 106.5t103 43.5q59 0 101 -43t42 -107q0 -61 -41.5 -104t-101.5 -43q-61 0 -103 43t-42 104zM807 1720q0 63 41 106.5 t102.5 43.5t103.5 -43t42 -107q0 -61 -42 -104t-103.5 -43t-102.5 43t-41 104z" />
<glyph unicode="&#x2c6;" horiz-adv-x="772" d="M-31 1657l385 338l383 -338l-159 -164l-224 190l-223 -190z" />
<glyph unicode="&#x2dc;" horiz-adv-x="1036" d="M10 1554q0 135 87 224.5t220 89.5q68 0 126.5 -31t102.5 -60.5t77 -29.5q39 0 62.5 24.5t23.5 61.5h254q0 -135 -87.5 -224t-220.5 -89q-84 0 -177 60t-128 60q-39 0 -62.5 -24.5t-23.5 -61.5h-254z" />
<glyph unicode="&#x2000;" horiz-adv-x="997" />
<glyph unicode="&#x2001;" horiz-adv-x="1994" />
<glyph unicode="&#x2002;" horiz-adv-x="997" />
<glyph unicode="&#x2003;" horiz-adv-x="1994" />
<glyph unicode="&#x2004;" horiz-adv-x="663" />
<glyph unicode="&#x2005;" horiz-adv-x="497" />
<glyph unicode="&#x2006;" horiz-adv-x="331" />
<glyph unicode="&#x2007;" horiz-adv-x="331" />
<glyph unicode="&#x2008;" horiz-adv-x="247" />
<glyph unicode="&#x2009;" horiz-adv-x="397" />
<glyph unicode="&#x200a;" horiz-adv-x="110" />
<glyph unicode="&#x2010;" horiz-adv-x="1173" d="M152 588v276h872v-276h-872z" />
<glyph unicode="&#x2011;" horiz-adv-x="1173" d="M152 588v276h872v-276h-872z" />
<glyph unicode="&#x2012;" horiz-adv-x="1173" d="M152 588v276h872v-276h-872z" />
<glyph unicode="&#x2013;" horiz-adv-x="1122" d="M152 567v318h819v-318h-819z" />
<glyph unicode="&#x2014;" horiz-adv-x="1978" d="M152 567v318h1675v-318h-1675z" />
<glyph unicode="&#x2018;" horiz-adv-x="647" d="M152 1071q0 94 64.5 201.5t160.5 185.5h121q-51 -33 -101.5 -117t-50.5 -133l-31 -10l31 -4q45 -6 80 -45t35 -98q0 -66 -46 -112t-109.5 -46t-108.5 50t-45 128z" />
<glyph unicode="&#x2019;" horiz-adv-x="647" d="M152 893q51 33 100 117t49 133l31 10l-31 4q-45 6 -80 45t-35 98q0 66 45 112t111 46t111 -50t45 -128q0 -94 -64.5 -201.5t-161.5 -185.5h-120z" />
<glyph unicode="&#x201a;" horiz-adv-x="647" d="M152 -270q51 33 100 116.5t49 133.5l31 10l-31 4q-45 6 -80 45t-35 98q0 66 45 112t111 46t111 -50t45 -128q0 -94 -64.5 -202t-161.5 -185h-120z" />
<glyph unicode="&#x201c;" horiz-adv-x="1091" d="M152 1071q0 94 64.5 201.5t160.5 185.5h121q-51 -33 -101.5 -117t-50.5 -133l-31 -10l31 -4q45 -6 80 -45t35 -98q0 -66 -46 -112t-109.5 -46t-108.5 50t-45 128zM596 1071q0 94 64.5 200.5t160.5 186.5h121q-51 -33 -101 -117t-50 -135l-31 -8l31 -4q47 -6 80.5 -45 t33.5 -98q0 -66 -45 -112t-110.5 -46t-109.5 49t-44 129z" />
<glyph unicode="&#x201d;" horiz-adv-x="1091" d="M152 893q51 33 100 117t49 133l31 10l-31 4q-45 6 -80 45t-35 98q0 66 45 112t111 46t111 -50t45 -128q0 -94 -64.5 -201.5t-161.5 -185.5h-120zM596 893q51 33 101.5 117t50.5 133l28 10l-28 4q-47 6 -82 45t-35 98q0 66 45 112t110.5 46t110.5 -50t45 -128 q0 -94 -64.5 -201.5t-160.5 -185.5h-121z" />
<glyph unicode="&#x201e;" horiz-adv-x="1093" d="M152 -270q51 33 100 116.5t49 133.5l31 10l-31 4q-45 6 -80 45t-35 98q0 66 45 112t111 46t111 -50t45 -128q0 -94 -64.5 -202t-161.5 -185h-120zM596 -270q51 33 101.5 116.5t50.5 133.5l30 10l-30 4q-47 6 -81 45t-34 98q0 66 45 112t110 46q63 0 108.5 -50t45.5 -128 q0 -94 -64.5 -202t-160.5 -185h-121z" />
<glyph unicode="&#x2022;" horiz-adv-x="806" d="M152 727q0 111 72.5 185.5t181.5 74.5q104 0 176.5 -74.5t72.5 -185.5q0 -113 -72.5 -188.5t-176.5 -75.5q-109 0 -181.5 75.5t-72.5 188.5z" />
<glyph unicode="&#x2026;" horiz-adv-x="1462" d="M109 104q0 55 37.5 93.5t91 38.5t91.5 -38t38 -94q0 -53 -38 -92t-91.5 -39t-91 39t-37.5 92zM596 104q0 55 38 93.5t91 38.5t90 -38t37 -94q0 -53 -37 -92t-90 -39t-91 39t-38 92zM1094 104q0 55 37.5 93.5t93.5 38.5q53 0 90 -38t37 -94q0 -53 -38 -92t-89 -39 q-55 0 -92 38t-39 93z" />
<glyph unicode="&#x202f;" horiz-adv-x="397" />
<glyph unicode="&#x2039;" horiz-adv-x="933" d="M152 721l438 -479l192 176l-284 303l282 301l-190 176z" />
<glyph unicode="&#x203a;" horiz-adv-x="933" d="M152 418l284 303l-284 301l190 176l440 -477l-438 -479z" />
<glyph unicode="&#x205f;" horiz-adv-x="497" />
<glyph unicode="&#x20ac;" horiz-adv-x="1519" d="M68 467v217h108v33v33h-106v217h139q66 229 236.5 361t404.5 132q201 0 356.5 -100t239.5 -279l-334 -86q-86 139 -264 140q-190 0 -285 -168h311v-217h-370v-33v-33h368v-217h-305q96 -164 285 -164q203 0 289 176l327 -84q-76 -197 -239.5 -309.5t-378.5 -112.5 q-233 0 -404.5 132.5t-236.5 361.5h-141z" />
<glyph unicode="&#x2122;" horiz-adv-x="1525" d="M20 1239v195h582v-195h-190v-471h-201v471h-191zM696 768v666h183l100 -162q20 -35 35.5 -70t21.5 -51l6 -16h2l5 16q6 18 21 52t36 69l102 162h183v-666h-191v182q0 45 4 91l6 69l2 23h-2l-10 -19q-12 -16 -33.5 -50t-36.5 -58l-47 -78h-79l-50 78l-77 127h-3l3 -23 l6 -69t4 -91v-182h-191z" />
<glyph unicode="&#xe000;" horiz-adv-x="1435" d="M0 1435h1435v-1435h-1435v1435z" />
<glyph unicode="&#xfb01;" horiz-adv-x="1804" d="M1317 0v1434h335v-1434h-335zM152 0v1434h950v-318h-615v-285h471v-307h-471v-524h-335z" />
<glyph unicode="&#xfb02;" horiz-adv-x="2314" d="M1317 0v1434h335v-1115h621v-319h-956zM152 0v1434h950v-318h-615v-285h471v-307h-471v-524h-335z" />
<glyph unicode="&#xfb03;" horiz-adv-x="2969" d="M2483 0v1434h335v-1434h-335zM1317 0v1434h950v-318h-615v-285h471v-307h-471v-524h-335zM152 0v1434h950v-318h-615v-285h471v-307h-471v-524h-335z" />
<glyph unicode="&#xfb04;" horiz-adv-x="3479" d="M2483 0v1434h335v-1115h621v-319h-956zM1317 0v1434h950v-318h-615v-285h471v-307h-471v-524h-335zM152 0v1434h950v-318h-615v-285h471v-307h-471v-524h-335z" />
</font>
</defs>
</svg>
